<?xml version="1.0" standalone="no"?>
<!DOCTYPE svg PUBLIC "-//W3C//DTD SVG 20010904//EN"
 "http://www.w3.org/TR/2001/REC-SVG-20010904/DTD/svg10.dtd">
<svg version="1.0" xmlns="http://www.w3.org/2000/svg"
 width="511.000000pt" height="385.000000pt" viewBox="0 0 511.000000 385.000000"
 preserveAspectRatio="xMidYMid meet">

<g transform="translate(0.000000,385.000000) scale(0.100000,-0.100000)"
fill="#00cf00" stroke="none">
<path d="M2523 3603 c-16 -11 -23 -26 -23 -48 0 -18 -7 -38 -16 -46 -8 -7 -24
-30 -35 -50 -23 -45 -38 -56 -51 -38 -7 11 -11 11 -15 1 -11 -28 -34 -42 -53
-32 -16 8 -22 5 -36 -20 -11 -18 -21 -25 -25 -19 -11 19 -59 -20 -59 -47 0
-14 6 -24 14 -24 7 0 19 -7 26 -15 8 -9 9 -15 2 -15 -6 0 -13 4 -17 10 -3 5
-12 7 -19 4 -8 -3 -17 -1 -21 5 -15 25 -25 8 -21 -34 4 -37 1 -45 -15 -50 -25
-8 -24 -22 1 -30 29 -9 25 -21 -12 -35 -33 -11 -33 -11 -12 -28 22 -19 27 -49
11 -69 -6 -9 -5 -13 4 -13 9 -1 8 -5 -5 -15 -14 -10 -15 -15 -6 -15 11 0 11
-3 2 -12 -15 -15 -16 -32 -2 -23 6 4 10 -6 10 -23 0 -16 7 -35 15 -42 10 -9
15 -9 15 -1 0 6 -4 11 -10 11 -5 0 -10 5 -10 10 0 6 11 8 25 4 28 -7 33 7 10
26 -12 10 -15 10 -15 0 0 -8 -2 -11 -5 -9 -7 7 6 49 15 49 13 0 30 -59 30
-101 0 -22 5 -39 11 -39 7 0 9 -10 5 -25 -4 -16 -2 -24 5 -23 6 2 14 -3 17
-11 3 -10 -2 -13 -22 -9 -25 5 -25 4 -11 -12 8 -9 15 -21 15 -27 0 -6 14 -16
31 -22 21 -7 30 -16 27 -28 -3 -20 -18 -24 -253 -67 -77 -15 -171 -34 -210
-42 -86 -20 -264 -63 -286 -69 -11 -4 -20 9 -33 50 -19 63 -36 75 -101 75 -41
0 -52 -5 -79 -34 -36 -39 -66 -56 -98 -56 -13 0 -18 -3 -12 -8 15 -9 25 -82
18 -120 -6 -30 -41 -52 -41 -26 0 8 -6 31 -13 53 -11 35 -11 43 4 66 19 29 12
50 -8 23 -12 -16 -14 -16 -29 3 -24 27 -52 24 -77 -11 -21 -29 -22 -29 -47
-13 -25 16 -26 16 -44 -6 -22 -26 -37 -75 -45 -147 l-6 -52 -142 -52 c-77 -28
-166 -61 -196 -72 -30 -11 -64 -28 -75 -37 -18 -15 -19 -15 -6 2 17 22 -2 23
-23 1 -16 -16 -12 -39 5 -29 5 4 9 -2 9 -12 0 -10 3 -29 5 -43 5 -24 5 -24 -8
3 -17 35 -29 25 -15 -14 13 -37 7 -44 -30 -31 -23 8 -31 7 -41 -7 -6 -9 -9
-11 -7 -5 3 6 -6 16 -19 22 -14 7 -25 16 -25 22 0 5 -4 10 -10 10 -17 0 -11
-43 10 -77 21 -36 68 -68 57 -39 -4 9 -2 16 3 16 6 0 10 -5 10 -11 0 -5 5 -7
12 -3 8 5 9 0 6 -14 -7 -27 -5 -27 68 -2 32 11 60 20 62 20 1 0 53 24 115 54
61 30 145 69 186 86 72 29 75 30 92 13 18 -19 28 -114 49 -491 10 -178 31
-370 50 -457 12 -55 48 -126 68 -133 8 -2 5 9 -8 31 -22 36 -45 110 -54 167
-26 176 -38 301 -42 450 -3 96 -9 202 -14 235 -14 89 -13 195 3 195 7 0 4 7
-7 15 -11 8 -18 16 -15 18 18 15 120 47 130 41 7 -4 20 3 31 17 11 13 16 18
12 10 -5 -10 -3 -12 5 -7 7 5 10 14 7 22 -3 7 0 16 6 20 7 5 8 2 3 -7 -5 -8 1
-5 13 5 26 23 30 45 5 25 -16 -13 -17 -12 -4 3 7 10 17 16 21 13 4 -3 14 3 21
12 8 9 29 22 47 30 24 10 32 19 31 36 -1 12 -1 32 -1 45 2 21 4 22 17 8 22
-22 48 -172 34 -198 -9 -17 -56 -42 -149 -80 l-25 -11 33 -9 c29 -8 32 -12 32
-46 0 -94 82 -471 121 -560 l23 -53 -18 -107 c-17 -103 -82 -423 -91 -450 -4
-10 -10 -10 -27 -2 -21 10 -21 10 2 -9 14 -11 19 -21 13 -21 -7 0 -27 14 -45
31 -24 22 -27 29 -13 24 12 -4 -1 15 -32 44 -51 51 -78 65 -67 36 4 -8 10 -13
14 -10 4 3 15 -6 24 -20 9 -14 13 -25 9 -25 -4 0 13 -20 37 -45 24 -25 50 -45
57 -45 7 0 13 -6 13 -12 0 -15 -37 -183 -46 -212 -4 -12 -2 -16 5 -12 23 14
111 384 146 616 9 58 23 130 31 161 8 30 14 67 14 82 0 15 5 27 10 27 6 0 10
-4 10 -8 0 -17 77 -70 110 -76 38 -7 38 -9 -24 41 -27 21 -27 24 -14 59 7 20
24 45 37 55 24 19 24 19 37 -6 7 -14 10 -33 7 -42 -4 -9 1 -21 11 -28 27 -20
97 -202 181 -475 9 -30 21 -58 27 -61 9 -6 -63 -80 -125 -129 -60 -47 -85
-144 -50 -197 17 -26 17 -27 -7 -44 -14 -10 -56 -41 -95 -70 -101 -74 -116
-80 -156 -68 -19 6 -45 12 -58 15 -13 3 -32 9 -43 15 -10 5 -24 7 -30 3 -6 -4
-8 -3 -5 3 4 6 -13 18 -37 27 -73 28 -75 34 -60 166 16 141 18 251 4 230 -5
-8 -10 -49 -10 -91 0 -41 -5 -80 -10 -85 -6 -6 -12 -52 -13 -102 -2 -81 0 -93
18 -107 33 -25 78 -48 110 -55 26 -5 30 -10 27 -36 -4 -41 10 -51 129 -88 99
-32 102 -32 179 -20 88 14 120 27 120 49 0 17 12 19 26 5 5 -5 30 -14 54 -19
25 -5 79 -18 121 -29 182 -49 473 -62 669 -30 58 9 177 24 265 33 280 29 288
31 355 64 36 17 72 31 82 31 10 0 33 7 52 17 32 15 41 15 123 0 86 -16 165
-22 250 -19 34 2 48 9 78 40 l36 37 -5 115 c-18 454 -29 587 -67 835 -36 232
-66 331 -120 397 -22 26 -39 50 -39 55 -1 11 -180 146 -186 140 -3 -3 10 -16
29 -29 l35 -24 -29 -13 c-30 -13 -39 -31 -16 -31 6 0 28 4 46 10 24 7 39 6 48
-1 17 -15 10 -25 -32 -45 -19 -9 -35 -21 -35 -26 0 -12 64 -2 90 15 14 8 22 8
34 -2 20 -17 20 -30 -1 -53 -21 -23 -9 -36 19 -19 11 7 24 9 28 4 13 -15 52
-155 54 -195 1 -22 7 -43 13 -46 6 -4 22 -95 37 -202 15 -107 31 -220 37 -250
22 -121 48 -526 29 -470 -4 14 -8 42 -9 62 -1 21 -10 75 -20 120 -10 46 -22
117 -26 158 -38 447 -47 495 -102 554 -64 69 -68 82 -38 122 l26 34 -32 45
c-18 25 -35 45 -38 45 -3 0 -24 -14 -45 -30 -38 -29 -40 -29 -59 -12 -28 25
-62 98 -77 162 -22 100 -39 135 -75 154 -19 10 -44 30 -57 44 l-23 26 30 -19
c56 -36 115 -67 115 -61 0 3 -26 23 -57 43 -32 21 -78 55 -103 76 -67 58 -175
119 -203 115 -23 -3 -49 13 -128 81 -38 33 -39 35 -39 100 0 36 3 76 6 88 7
26 20 29 179 43 482 42 495 42 865 36 201 -3 410 -10 465 -16 55 -5 152 -12
215 -16 l115 -7 -30 33 c-16 17 -52 43 -78 56 -51 26 -160 38 -632 65 -183 11
-770 6 -878 -7 -27 -3 -56 -2 -65 2 -9 4 -21 8 -27 8 -5 1 -10 7 -10 14 0 8
-8 19 -17 26 -10 7 -18 17 -18 21 0 4 8 14 18 21 14 10 15 15 5 25 -18 18 -16
29 5 29 13 0 14 2 3 9 -10 6 -10 10 -1 16 6 4 9 14 6 22 -4 11 -1 13 14 8 15
-5 21 0 27 22 15 60 -13 105 -61 96 -21 -4 -28 0 -36 22 -13 33 -13 68 0 60 5
-3 7 -11 4 -18 -6 -17 23 -43 59 -51 44 -10 33 19 -20 55 -27 18 -50 34 -52
36 -3 2 1 9 7 15 10 10 14 8 18 -7 3 -11 23 -30 45 -42 38 -21 40 -21 34 -2
-4 11 -2 19 4 19 6 0 11 9 11 19 0 11 9 26 20 34 27 19 14 28 -29 23 -20 -3
-29 -3 -19 0 22 7 31 33 13 40 -8 4 -27 4 -43 0 -15 -3 -21 -3 -14 0 20 9 -5
34 -33 34 -16 0 -25 8 -29 25 -4 14 -11 23 -16 20 -6 -3 -10 3 -10 15 0 25
-29 38 -41 19 -6 -9 -9 -10 -9 -2 0 7 -11 23 -23 37 -19 20 -26 23 -36 13 -10
-9 -15 -8 -25 6 -7 9 -18 17 -24 17 -5 0 -12 7 -16 15 -9 24 -33 7 -56 -39
-29 -60 -26 -71 13 -44 17 13 36 28 40 33 13 17 -4 -48 -23 -85 -9 -19 -26
-37 -36 -39 -18 -3 -18 -2 -1 16 25 28 21 36 -8 17 l-25 -16 3 43 c2 28 14 61
32 89 27 43 44 110 28 110 -5 0 -14 -13 -21 -30 -16 -35 -33 -40 -24 -8 5 22
5 22 -21 5 -35 -23 -64 -22 -78 4 -6 13 -7 19 -1 15 6 -3 12 0 14 6 3 8 24 13
58 13 29 0 55 5 57 11 3 8 -14 10 -49 7 -38 -3 -49 -1 -38 6 8 5 27 7 42 4 16
-3 28 -1 28 5 0 25 -73 29 -107 5z m78 -169 c-12 -21 -21 -46 -22 -54 0 -11
-2 -11 -6 -2 -4 10 -8 10 -21 0 -20 -16 -13 -3 31 59 37 52 46 50 18 -3z m70
3 c-10 -9 -11 -8 -5 6 3 10 9 15 12 12 3 -3 0 -11 -7 -18z m-176 -47 c3 -5 1
-10 -4 -10 -6 0 -11 5 -11 10 0 6 2 10 4 10 3 0 8 -4 11 -10z m-98 -22 c-3 -8
-6 -5 -6 6 -1 11 2 17 5 13 3 -3 4 -12 1 -19z m365 0 c-7 -7 -12 -8 -12 -2 0
6 3 14 7 17 3 4 9 5 12 2 2 -3 -1 -11 -7 -17z m-277 -45 c0 -10 4 -24 8 -30
10 -17 -13 -28 -26 -13 -9 10 -9 11 2 5 11 -6 13 -4 6 11 -4 10 -10 30 -13 44
-4 20 -2 23 8 13 7 -7 14 -20 15 -30z m100 27 c-3 -5 2 -21 11 -35 13 -20 14
-28 4 -40 -18 -21 -33 -19 -25 4 3 11 1 22 -5 26 -16 10 -12 55 6 55 8 0 12
-4 9 -10z m125 -18 c0 -36 -33 -72 -66 -72 l-26 0 29 24 c16 13 35 36 42 50
18 33 21 33 21 -2z m133 1 c-3 -10 -11 -24 -16 -31 -5 -7 -10 -22 -11 -35 -1
-18 -7 -22 -34 -24 -35 -1 -59 -13 -28 -13 9 0 15 -4 12 -8 -3 -5 15 -9 41
-10 50 0 60 -9 68 -62 3 -19 11 -69 19 -111 13 -78 13 -84 -18 -280 -19 -124
-28 -143 -107 -228 l-67 -71 -111 0 c-87 0 -117 4 -137 16 -24 16 -58 64 -35
50 5 -4 28 9 49 29 22 19 48 35 58 35 16 0 16 2 4 10 -12 7 -7 12 20 24 l35
15 -35 1 c-20 0 -41 -5 -47 -11 -6 -6 -17 -9 -24 -7 -17 6 116 55 151 56 14 1
40 -3 58 -9 30 -10 32 -13 19 -27 -30 -36 -29 -45 1 -23 18 12 32 25 32 29 0
15 -72 52 -101 52 -31 0 -161 -50 -195 -75 -18 -13 -18 -14 4 -22 23 -9 22 -9
-16 -40 -38 -31 -41 -31 -56 -14 -9 9 -24 42 -35 73 -10 30 -26 70 -36 88 -13
26 -15 38 -6 57 8 18 8 40 -4 89 -8 36 -15 86 -15 111 l0 46 43 -7 c23 -4 60
-12 82 -18 l40 -12 -35 -7 -35 -6 30 -3 c17 -2 0 -6 -37 -9 -50 -4 -65 -9 -60
-18 6 -10 17 -10 47 -2 32 9 41 8 51 -5 12 -18 44 -22 44 -6 0 5 10 9 23 7 13
-1 21 3 19 11 -1 6 5 12 14 12 14 0 15 -7 9 -47 -12 -77 -11 -131 4 -145 11
-11 12 -10 6 2 -6 11 -3 10 12 -2 27 -24 46 -23 38 2 -6 18 -4 19 20 10 37
-14 43 -12 18 5 -12 8 -36 17 -53 19 -17 2 -33 6 -36 9 -3 3 0 46 8 95 l14 90
-30 -1 c-17 0 -77 8 -134 18 -86 15 -102 21 -96 34 4 9 8 42 9 74 1 32 6 62
11 67 7 6 134 38 169 41 16 2 40 -5 46 -14 4 -5 16 1 27 14 18 19 22 20 27 6
4 -8 14 -18 23 -22 9 -3 13 -3 9 1 -16 16 18 34 65 34 48 0 108 24 108 43 0 4
4 6 8 3 5 -3 15 7 23 22 12 23 28 41 36 42 1 0 0 -8 -4 -17z m28 -26 c-13 -12
-20 -15 -16 -7 14 26 28 41 33 35 3 -3 -5 -16 -17 -28z m-471 -3 c0 -2 -9 0
-20 6 -11 6 -20 13 -20 16 0 2 9 0 20 -6 11 -6 20 -13 20 -16z m391 12 c-13
-15 -51 -28 -51 -17 0 6 34 23 59 30 2 1 -2 -5 -8 -13z m-441 -6 c0 -5 9 -19
20 -30 24 -24 19 -25 -20 -5 -30 15 -36 26 -23 38 10 10 23 8 23 -3z m-50 -20
c0 10 3 10 15 0 8 -7 15 -17 15 -22 0 -6 -6 -6 -14 1 -11 9 -15 9 -18 -1 -3
-8 -10 -4 -18 12 -12 23 -12 24 3 11 13 -10 17 -10 17 -1z m604 -30 c-9 -16
-13 -34 -9 -40 8 -13 -5 -13 -25 0 -13 9 -13 11 0 20 12 8 9 10 -12 10 -20 0
-26 4 -22 14 6 16 24 23 61 25 21 1 21 0 7 -29z m-149 10 c-3 -5 -13 -10 -21
-10 -8 0 -12 5 -9 10 3 6 13 10 21 10 8 0 12 -4 9 -10z m-507 -51 c-18 -12
-25 -11 -31 4 -4 10 2 13 20 9 18 -3 21 -7 11 -13z m82 -1 c-14 -5 -36 -12
-50 -14 -24 -4 -24 -4 -6 11 11 8 34 15 50 14 31 0 31 0 6 -11z m-95 -158 c-9
-18 -19 -30 -21 -27 -3 3 2 19 11 37 9 18 19 30 21 27 3 -3 -2 -19 -11 -37z
m727 -45 c15 -30 15 -35 3 -35 -8 0 -15 6 -16 13 -1 6 -5 1 -10 -13 -7 -21 -8
-19 -4 13 2 20 0 37 -6 37 -5 0 -9 7 -9 15 0 24 24 7 42 -30z m-35 -157 c-3
-7 -5 -2 -5 12 0 14 2 19 5 13 2 -7 2 -19 0 -25z m13 -78 c0 -5 -2 -10 -4 -10
-3 0 -8 5 -11 10 -3 6 -1 10 4 10 6 0 11 -4 11 -10z m-3 -117 c-2 -16 -4 -5
-4 22 0 28 2 40 4 28 2 -13 2 -35 0 -50z m50 5 c-3 -8 -6 -5 -6 6 -1 11 2 17
5 13 3 -3 4 -12 1 -19z m-1502 -100 c20 -49 45 -180 45 -237 0 -58 -18 -151
-29 -151 -10 0 -23 182 -15 204 9 24 -25 161 -47 190 l-20 26 26 0 c20 0 29
-8 40 -32z m-84 -5 c22 -44 22 -46 12 -40 -5 3 -10 0 -10 -8 0 -8 4 -12 8 -9
4 2 11 -12 14 -33 3 -21 8 -46 10 -56 3 -15 1 -16 -11 -6 -11 9 -14 9 -14 -1
0 -7 7 -18 15 -24 10 -8 17 -40 21 -108 7 -97 7 -98 -16 -98 -17 0 -21 4 -15
18 4 9 8 24 9 32 0 8 6 18 11 22 6 5 5 8 -3 8 -7 0 -10 5 -7 10 4 6 3 19 -1
28 -8 21 -12 36 -19 87 -14 107 -14 108 -44 102 l-28 -6 20 55 c11 29 23 54
27 54 4 0 13 -12 21 -27z m1432 -81 c-4 -60 -2 -91 11 -130 10 -29 21 -50 26
-47 4 3 22 -12 40 -33 17 -20 29 -31 25 -24 -12 23 14 12 31 -13 14 -22 14
-33 -1 -137 -22 -157 -54 -287 -74 -307 -10 -10 -15 -23 -13 -30 4 -13 -66
-121 -80 -121 -4 0 -8 -5 -8 -12 0 -21 -52 -88 -68 -88 -12 0 -13 -3 -5 -11 8
-8 6 -20 -9 -45 -11 -19 -18 -37 -15 -40 5 -5 50 72 52 87 0 7 95 115 95 108
0 -30 -157 -349 -171 -349 -17 0 -15 29 6 72 22 46 23 47 3 54 -21 6 -41 -6
-21 -13 15 -5 7 -28 -22 -68 -12 -16 -31 -48 -42 -70 -12 -22 -30 -49 -42 -59
-12 -11 -21 -24 -21 -30 0 -19 -52 -65 -67 -59 -12 5 -14 1 -8 -15 8 -28 -11
-29 -25 -1 -13 24 -43 108 -71 199 -33 109 -53 307 -54 517 0 105 2 194 5 196
3 3 26 1 52 -4 26 -6 60 -9 75 -7 19 3 5 8 -45 17 -40 8 -76 19 -79 24 -4 6 0
8 10 4 8 -3 33 -8 54 -11 33 -5 31 -3 -15 12 l-53 17 6 48 c4 27 20 94 36 149
17 60 29 124 29 159 0 33 3 59 8 58 4 0 25 -11 47 -24 53 -32 143 -74 171 -81
15 -4 42 4 77 23 l53 29 -22 -56 c-12 -30 -24 -73 -28 -95 -4 -27 8 -6 37 67
33 85 102 215 114 218 1 0 0 -35 -4 -78z m-1516 33 c5 -8 7 -31 5 -50 -3 -26
-9 -35 -22 -35 -10 0 -21 -6 -23 -12 -3 -7 -6 4 -6 24 -1 38 16 88 30 88 4 0
12 -7 16 -15z m-169 -48 c3 -39 0 -47 -15 -48 -17 -1 -17 -2 0 -6 10 -3 17
-14 17 -27 0 -30 -9 -37 -31 -25 -14 7 -19 22 -20 52 -1 23 -4 32 -6 20 -6
-31 -18 -29 -21 3 -2 32 34 86 57 82 12 -2 17 -16 19 -51z m1242 38 c0 -7 -81
-47 -86 -42 -3 2 15 14 38 25 49 24 48 24 48 17z m-73 -11 c-3 -3 -12 -4 -19
-1 -8 3 -5 6 6 6 11 1 17 -2 13 -5z m-1277 -52 c13 -48 13 -52 -5 -52 -8 0
-15 -4 -15 -9 0 -5 10 -7 21 -4 16 4 20 2 17 -8 -9 -28 -38 -22 -50 11 -9 27
-12 30 -20 16 -5 -8 -8 -28 -6 -42 2 -15 -3 -29 -10 -31 -10 -4 -11 7 -6 49
14 113 52 149 74 70z m1236 39 c-3 -5 1 -14 9 -21 12 -10 21 -10 41 -2 20 10
26 9 31 -4 10 -27 -10 -69 -36 -72 -13 -2 -47 -28 -76 -57 -30 -29 -64 -56
-76 -60 -35 -11 -115 -65 -96 -65 10 0 -29 -45 -96 -111 l-112 -111 -31 37
c-24 29 -32 34 -37 22 -3 -9 -21 -23 -39 -33 -49 -24 -78 -55 -78 -80 0 -32
-37 -113 -55 -120 -8 -3 -34 3 -57 15 -39 19 -42 19 -54 3 -7 -9 -40 -54 -73
-100 l-60 -83 -15 30 c-9 16 -22 71 -30 123 -36 229 -42 304 -26 324 22 25 76
43 117 37 28 -4 48 1 75 16 42 25 46 33 54 108 8 65 -12 55 234 117 321 81
502 113 486 87z m-966 -71 c0 -5 -5 -10 -11 -10 -5 0 -7 5 -4 10 3 6 8 10 11
10 2 0 4 -4 4 -10z m1869 -220 c13 0 42 -41 36 -50 -3 -4 9 -47 25 -95 17 -49
28 -90 26 -92 -5 -5 -43 94 -59 155 -10 36 -21 51 -64 81 -61 42 -72 63 -13
26 22 -14 44 -25 49 -25z m33 -453 c15 -31 59 -106 99 -165 40 -59 61 -98 48
-87 -17 14 -13 6 13 -30 19 -27 42 -63 51 -80 16 -33 14 -42 -46 -245 -13 -47
-28 -112 -32 -146 l-7 -61 -69 -17 c-203 -49 -852 -156 -865 -143 -3 3 28 33
68 67 86 74 155 145 210 218 72 97 176 257 198 307 13 28 31 68 41 90 70 156
116 324 134 480 3 33 11 85 17 115 l10 55 52 -150 c29 -83 64 -176 78 -208z
m-1047 89 l8 -69 -29 6 c-57 11 -83 -1 -95 -47 -6 -22 -13 -60 -14 -82 -2 -23
-8 -86 -14 -140 -26 -230 -30 -270 -30 -284 0 -8 -3 -51 -7 -94 -9 -102 -19
-76 -28 74 -8 146 -36 423 -43 430 -3 3 -3 -49 0 -115 l6 -120 -19 90 c-10 50
-19 102 -19 117 -1 15 -5 29 -10 33 -14 8 -6 -91 13 -155 16 -54 59 -330 53
-336 -2 -2 -9 13 -16 34 -7 20 -40 110 -73 200 -46 124 -58 165 -49 176 9 10
5 25 -16 64 -15 28 -25 53 -23 56 3 2 16 6 29 8 13 1 40 19 61 38 20 19 77 72
127 117 49 45 108 105 129 133 l39 51 6 -58 c4 -32 10 -89 14 -127z m-1654
121 c-7 -7 -14 -8 -21 -1 -6 6 -2 10 12 11 16 2 18 -1 9 -10z m2867 -275 c-2
-9 -13 8 -25 38 -35 91 -36 98 -3 37 17 -32 30 -66 28 -75z m-1214 62 c11 -4
16 -19 16 -50 0 -42 -1 -44 -29 -44 -34 0 -50 16 -24 23 11 2 3 7 -19 11 -31
7 -38 13 -38 31 0 13 6 26 13 28 18 8 63 8 81 1z m1296 -4 c0 -5 -4 -10 -10
-10 -5 0 -10 5 -10 10 0 6 5 10 10 10 6 0 10 -4 10 -10z m-1736 -59 c9 -10 26
-36 36 -56 17 -34 18 -40 5 -59 -18 -24 -19 -37 -4 -33 6 1 15 -9 20 -22 8
-19 7 -22 -4 -12 -11 8 -16 5 -26 -16 -11 -23 -10 -29 5 -40 12 -9 21 -10 28
-3 16 16 23 12 35 -21 9 -25 8 -30 -3 -26 -13 5 -56 -34 -56 -51 0 -16 84
-245 87 -236 2 5 -13 56 -32 114 -19 57 -35 108 -35 113 0 5 9 7 20 4 11 -3
23 -1 26 5 11 17 23 -14 13 -34 -5 -10 -14 -27 -19 -38 -11 -22 -10 -23 43
-34 27 -6 39 -36 13 -36 -23 0 -30 -49 -10 -71 16 -18 18 -18 36 -3 10 10 18
12 18 6 0 -6 3 -18 7 -28 5 -14 2 -16 -19 -11 -24 6 -26 4 -30 -32 -2 -22 0
-37 5 -34 14 9 47 -34 47 -62 0 -20 5 -25 25 -25 14 0 25 -4 25 -10 0 -5 -4
-10 -9 -10 -16 0 -23 -38 -11 -59 14 -27 38 -17 42 17 l4 27 12 -28 c15 -34 1
-59 -49 -89 -28 -17 -31 -21 -16 -29 18 -11 64 8 87 36 11 14 11 24 -3 67 -18
58 -16 68 19 68 67 0 158 -97 109 -116 -8 -4 -15 -12 -15 -18 0 -16 -52 -66
-68 -66 -7 0 -12 -4 -12 -9 0 -17 -88 -61 -141 -71 -45 -9 -56 -7 -84 10 -18
11 -38 26 -44 33 -14 18 2 73 34 121 14 20 25 45 26 54 0 18 16 -11 44 -82 23
-58 27 -39 5 24 -112 333 -185 541 -214 607 l-34 81 24 13 c14 7 22 19 20 26
-3 7 7 19 22 28 l27 14 -32 -5 c-31 -6 -32 -5 -38 39 -4 25 -4 50 0 56 3 6 0
11 -7 11 -9 0 -9 3 2 10 21 13 25 13 44 -9z m-69 -22 c-4 -6 -7 -27 -7 -47 0
-33 -1 -35 -11 -14 -10 21 3 72 18 72 4 0 3 -5 0 -11z m19 -136 c-26 -19 -36
-16 -22 6 6 11 18 17 26 13 12 -4 12 -8 -4 -19z m535 -139 c11 -71 29 -154 39
-184 27 -76 108 -232 132 -252 20 -16 19 -17 -31 -57 -29 -23 -55 -41 -59 -41
-4 0 -12 11 -18 24 -7 17 -25 29 -50 36 -33 8 -41 15 -46 41 -4 19 -13 33 -26
36 -21 6 -21 23 0 203 4 41 8 86 7 100 -4 59 15 253 24 239 4 -9 17 -74 28
-145z m1331 -29 c0 -5 -5 -3 -10 5 -5 8 -10 20 -10 25 0 6 5 3 10 -5 5 -8 10
-19 10 -25z m38 -370 c77 -221 172 -518 172 -539 0 -10 -158 -7 -229 5 -116
18 -111 15 -101 48 6 22 2 47 -13 93 -25 75 -29 237 -8 310 12 41 11 52 -4 91
-17 45 -17 47 14 174 18 70 35 135 38 143 7 21 24 -21 131 -325z m-1444 263
c-4 -24 -8 -44 -9 -46 -2 -2 -18 1 -36 6 -27 6 -35 14 -37 36 -4 34 10 46 56
46 l32 0 -6 -42z m526 37 c0 -18 -95 -165 -106 -165 -2 0 -4 11 -4 25 0 19 5
25 21 25 18 0 19 3 9 15 -17 20 -5 45 21 45 18 0 19 2 9 15 -10 12 -10 18 0
30 12 14 50 21 50 10z m1002 -234 c27 -73 47 -135 44 -138 -2 -2 -10 13 -16
34 -7 21 -37 101 -67 178 -65 166 -72 189 -37 115 14 -30 48 -115 76 -189z
m-1123 49 c-6 -4 -16 -18 -23 -31 -6 -13 -22 -25 -34 -27 -27 -4 -28 8 -2 36
11 12 20 24 20 28 0 4 8 16 17 26 17 19 17 19 25 -3 6 -14 5 -25 -3 -29z
m-593 -87 c-10 -10 -19 5 -10 18 6 11 8 11 12 0 2 -7 1 -15 -2 -18z m209 -63
c0 -7 -6 -15 -12 -17 -8 -3 -13 4 -13 17 0 13 5 20 13 18 6 -3 12 -11 12 -18z
m96 -67 c5 -5 10 -20 11 -33 3 -22 -1 -25 -26 -25 -16 0 -32 7 -36 15 -4 8
-12 25 -18 37 -7 13 -12 25 -12 27 0 7 72 -12 81 -21z m1103 -93 c-5 -87 -3
-118 14 -182 20 -80 19 -88 -12 -65 -20 15 -32 92 -16 102 6 4 5 18 -4 40 -10
24 -13 56 -9 114 l6 81 -26 0 c-14 0 -29 -4 -32 -10 -8 -13 -45 -13 -45 0 0 5
17 12 38 15 20 4 42 8 47 10 6 1 18 2 28 2 16 -1 17 -11 11 -107z m-140 69
c-3 -6 -15 -9 -25 -6 -11 3 -19 1 -19 -4 0 -11 -36 -6 -47 6 -5 4 -3 6 2 3 6
-3 18 -3 28 1 32 12 69 12 61 0z m-114 -19 c0 -4 -17 -7 -37 -7 -32 -1 -34 0
-13 6 32 9 50 9 50 1z m-835 -40 c-3 -5 -16 -10 -28 -9 -20 1 -20 2 3 9 14 4
26 8 28 9 2 1 0 -3 -3 -9z m-76 -32 c-24 -45 -168 -154 -192 -145 -7 3 -1 9
13 15 14 6 41 24 60 41 19 17 40 35 45 40 6 4 25 25 43 45 36 40 51 42 31 4z
m1071 12 c0 -5 -4 -10 -10 -10 -5 0 -10 5 -10 10 0 6 5 10 10 10 6 0 10 -4 10
-10z m-1483 -42 c-3 -8 -6 -5 -6 6 -1 11 2 17 5 13 3 -3 4 -12 1 -19z m82
-128 c19 -5 31 -5 31 1 0 5 10 9 21 9 18 0 19 -2 9 -15 -18 -22 -61 -18 -90 8
-14 12 -21 18 -14 14 7 -4 26 -12 43 -17z m1958 -82 c-2 -13 -4 -5 -4 17 -1
22 1 32 4 23 2 -10 2 -28 0 -40z m-2370 -140 c-3 -7 -5 -2 -5 12 0 14 2 19 5
13 2 -7 2 -19 0 -25z m173 8 c0 -3 -4 -8 -10 -11 -5 -3 -10 -1 -10 4 0 6 5 11
10 11 6 0 10 -2 10 -4z"/>
<path d="M2826 3012 c12 -11 64 -33 64 -27 0 5 -56 35 -67 35 -4 0 -3 -4 3 -8z"/>
<path d="M2663 2997 c-46 -6 -83 -14 -83 -17 0 -17 45 -17 118 0 42 10 86 21
97 23 35 8 -46 4 -132 -6z"/>
<path d="M2656 2931 c-16 -17 -14 -19 36 -33 34 -10 61 -12 76 -7 13 5 34 9
48 9 13 0 24 5 24 10 0 6 -28 8 -72 6 -54 -4 -62 -3 -33 3 l40 8 -35 2 c-27 1
-31 4 -20 11 11 7 8 10 -16 10 -18 0 -38 -8 -48 -19z"/>
<path d="M2345 2900 c3 -5 14 -10 23 -10 15 0 15 2 2 10 -20 13 -33 13 -25 0z"/>
<path d="M2742 2840 c0 -19 2 -27 5 -17 2 9 2 25 0 35 -3 9 -5 1 -5 -18z"/>
<path d="M2731 2764 c0 -11 3 -14 6 -6 3 7 2 16 -1 19 -3 4 -6 -2 -5 -13z"/>
<path d="M2568 2603 c12 -2 32 -2 45 0 12 2 2 4 -23 4 -25 0 -35 -2 -22 -4z"/>
<path d="M2565 2560 c4 -6 11 -8 16 -5 14 9 11 15 -7 15 -8 0 -12 -5 -9 -10z"/>
<path d="M2870 2023 c-44 -8 -126 -41 -165 -67 -48 -33 -33 -33 24 -1 24 14
77 34 118 44 98 25 111 39 23 24z"/>
<path d="M2547 1585 c-4 -55 -7 -120 -6 -145 l1 -45 15 53 c13 42 14 71 7 145
l-9 92 -8 -100z"/>
<path d="M2480 1295 c-25 -13 -39 -24 -31 -25 11 0 10 -4 -5 -16 -18 -14 -18
-15 4 -4 13 7 21 14 17 18 -3 3 13 16 37 29 24 12 39 22 33 22 -5 0 -30 -11
-55 -24z"/>
<path d="M2390 1261 c0 -5 9 -7 20 -4 11 3 20 7 20 9 0 2 -9 4 -20 4 -11 0
-20 -4 -20 -9z"/>
<path d="M1930 2149 c-47 -23 -107 -49 -134 -60 -67 -27 -186 -98 -186 -110 0
-6 -11 -25 -25 -41 l-25 -30 22 -18 c30 -24 41 -15 35 25 -6 38 3 57 22 45 8
-4 20 -6 28 -3 11 4 11 8 1 20 -10 13 -8 19 11 34 14 12 31 17 42 14 12 -4 21
-1 25 10 4 9 25 25 47 37 l41 20 18 -22 c21 -26 35 -20 46 23 8 30 11 32 50
29 40 -3 55 9 31 24 -8 4 1 14 22 25 63 33 15 18 -71 -22z"/>
<path d="M3391 1024 c0 -11 3 -14 6 -6 3 7 2 16 -1 19 -3 4 -6 -2 -5 -13z"/>
<path d="M3427 919 c7 -7 15 -10 18 -7 3 3 -2 9 -12 12 -14 6 -15 5 -6 -5z"/>
<path d="M3410 676 c0 -2 8 -10 18 -17 15 -13 16 -12 3 4 -13 16 -21 21 -21
13z"/>
<path d="M415 2084 c-53 -28 -45 -30 25 -6 9 3 7 -2 -5 -12 -19 -16 -18 -16
13 -1 33 16 45 29 15 18 -11 -4 -14 -3 -9 5 10 16 -3 15 -39 -4z"/>
<path d="M3657 1680 c-3 -14 -2 -29 3 -34 16 -16 23 1 13 31 l-9 27 -7 -24z"/>
<path d="M1092 1380 c0 -14 2 -19 5 -12 2 6 2 18 0 25 -3 6 -5 1 -5 -13z"/>
<path d="M1589 1328 c-2 -24 -1 -70 2 -103 4 -40 6 -48 8 -25 l2 35 14 -25 c8
-14 14 -20 14 -15 0 6 -6 21 -14 35 -8 14 -14 48 -14 75 l0 50 14 -30 c16 -37
19 -29 4 14 -15 43 -26 39 -30 -11z"/>
<path d="M1102 1300 c0 -14 2 -19 5 -12 2 6 2 18 0 25 -3 6 -5 1 -5 -13z"/>
<path d="M1631 1280 c0 -8 6 -28 14 -45 l14 -30 -6 30 c-7 38 -22 68 -22 45z"/>
<path d="M1112 1240 c0 -14 2 -19 5 -12 2 6 2 18 0 25 -3 6 -5 1 -5 -13z"/>
<path d="M1676 1150 c3 -14 11 -32 16 -40 6 -10 7 -7 2 10 -3 14 -11 32 -16
40 -6 10 -7 7 -2 -10z"/>
<path d="M1583 1090 c0 -30 2 -43 4 -27 2 15 2 39 0 55 -2 15 -4 2 -4 -28z"/>
<path d="M1176 1047 c3 -10 9 -15 12 -12 3 3 0 11 -7 18 -10 9 -11 8 -5 -6z"/>
<path d="M1232 770 c-1 -19 -4 -53 -7 -75 l-5 -40 11 33 c5 19 8 53 6 75 -3
40 -4 40 -5 7z"/>
</g>
</svg>
